
<svg xmlns="http://www.w3.org/2000/svg" version="1.1" xmlns:xlink="http://www.w3.org/1999/xlink" preserveAspectRatio="none" x="0px" y="0px" width="550px" height="400px" viewBox="0 0 550 400">
<defs>
<g id="Layer0_0_FILL">
<path fill="#E74A39" stroke="none" d="
M 255.75 265.65
Q 251.25 266.15 246.7 268.2 238.65 271.65 228.75 280.85 248.7486328125 285.2826171875 264.85 284.25
L 264.85 290.55
Q 255.9 292.65 247.7 287.8 253.05 296.8 270.6 295.7 283.95 294.9 289.25 288.1 280.5 291.55 272.4 290.3
L 272.4 284.35
Q 287.8236328125 285.29375 305.95 281.6 297.1953125 269.60625 289.3 267.35 281.403515625 265.1453125 275.65 266.2 269.948828125 267.3015625 267.85 272.45 263.45 265.4 255.75 265.65
M 359.65 137.95
Q 359.359375 137.8134765625 359.05 137.65 264.4015625 105.196484375 179.95 137.65 179.3322265625 137.9818359375 178.7 138.3 164.2416015625 146.580078125 157.8 161.8
L 157.8 216.6
Q 158.35703125 222.821875 169.65 230.7 172.7515625 232.87578125 176 234.8 189.7966796875 243.016796875 206.2 246.8 221.5646484375 248.318359375 235.95 241.45 245.9876953125 236.65234375 252.2 236.05 266.520703125 233.73359375 280.1 236.05 287.5119140625 237.4494140625 293.35 241.8 304.2341796875 249.0017578125 325.55 248.8 343.572265625 247.334375 359.35 236.3 365.732421875 231.834765625 371.75 225.8 376.8439453125 220.140625 377.2 216.6
L 377.2 157.15
Q 371.5630859375 144.511328125 359.65 137.95 Z"/>
</g>

<path id="Layer0_0_1_STROKES" stroke="#E74A39" stroke-width="5" stroke-linejoin="round" stroke-linecap="round" fill="none" d="
M 359.675 137.975
Q 363.3083984375 46.1919921875 269.875 45.475 176.5818359375 44.753515625 178.725 138.325
M 176 234.8
Q 178.047265625 256.2955078125 188.55 276.1 191.847265625 282.2931640625 203.65 300.3 210.67109375 312.464453125 216.55 325.7 221.71796875 337.4015625 231.5 342.25 267.172265625 355.424609375 300.05 342.25 311.8568359375 337.1232421875 317.25 325.35 323.2169921875 312.28828125 331.85 299.45 340.0771484375 285.690234375 347.35 273.75 358.4703125 255.2845703125 359.35 236.3"/>
</defs>

<g transform="matrix( 1, 0, 0, 1, 0,0) ">
<use xlink:href="#Layer0_0_FILL"/>

<use xlink:href="#Layer0_0_1_STROKES"/>
</g>

<g transform="matrix( 1, 0, 0, 1, 194.45,138.75) ">
<clipPath id="Mask_Mask_1">
<rect x="31" y="-2" width="82" height="83.1" fill="#FFFFFF" stroke="none"/>
</clipPath>

<text clip-path="url(#Mask_Mask_1)" writing-mode="lr"><tspan x="33.1" y="62.85" baseline-shift="0%" font-family="Roboto Black" font-size="60" fill="#FFFFFF" xml:space="preserve">VR</tspan></text>
</g>
</svg>
