<?xml version="1.0" encoding="UTF-8" standalone="no"?><!DOCTYPE svg PUBLIC "-//W3C//DTD SVG 1.1//EN" "http://www.w3.org/Graphics/SVG/1.1/DTD/svg11.dtd"><svg width="100%" height="100%" viewBox="0 0 600 600" version="1.1" xmlns="http://www.w3.org/2000/svg" xmlns:xlink="http://www.w3.org/1999/xlink" xml:space="preserve" xmlns:serif="http://www.serif.com/" style="fill-rule:evenodd;clip-rule:evenodd;stroke-linejoin:round;stroke-miterlimit:1.41421;"><path id="Layer0_0_FILL" d="M161.602,369.287c-12.141,-37.882 -33.726,-53.934 -64.754,-48.157c-31.212,5.48 -46.971,24.928 -47.277,58.343c1.042,39.61 19.009,73.71 53.9,102.301c32.561,32.402 50.129,66.026 52.704,100.871c4.66,-34.845 19.898,-64.687 45.714,-89.525c36.178,-30.377 58.775,-62.363 67.789,-95.957c4.905,-41.694 -10.455,-66.294 -46.082,-73.799c-34.094,-5.301 -54.758,10.007 -61.994,45.923m-5.795,-196.113c-0.797,18.822 -4.936,37.525 -12.417,56.109c-7.481,15.546 -31.365,24.451 -71.652,26.714l0,8.309l172.737,0l0,-6.79c-37.405,-0.774 -59.725,-12.836 -66.961,-36.185c-6.745,-16.261 -10.639,-32.551 -11.681,-48.872c13.429,31.867 30.997,47.532 52.704,46.996c26.858,-2.263 44.549,-16.172 53.072,-41.724c3.863,-23.349 -5.426,-43.69 -27.869,-61.023c-41.33,-31.331 -69.108,-64.448 -83.334,-99.353c-15.452,33.356 -40.103,63.972 -73.951,91.848c-38.509,29.603 -45.745,60.099 -21.708,91.489c32.009,29.068 62.362,19.895 91.06,-27.518m286.7,152.066c-22.197,-0.238 -38.846,7.535 -49.945,23.319c-15.513,22.098 -12.938,44.197 7.727,66.295c-19.623,-18.108 -39.245,-15.487 -58.867,7.862c-12.693,15.07 -16.71,34.517 -12.049,58.343c7.481,25.612 22.718,40.414 45.713,44.404c34.891,5.778 53.348,-9.023 55.372,-44.404c3.127,20.311 1.84,37.376 -3.863,51.195c-5.642,13.819 -25.662,24.868 -60.063,33.147l0,10.9l148.087,0l0,-11.704c-28.207,-1.728 -46.296,-7.982 -54.268,-18.763c-14.471,-23.885 -19.53,-45.596 -15.176,-65.133c5.702,31.093 23.271,46.132 52.704,45.12c10.363,-0.715 19.162,-3.336 26.398,-7.863c11.59,-7.564 19.592,-19.983 24.007,-37.257c5.396,-27.637 0.613,-49.11 -14.349,-64.418c-3.373,-3.216 -6.592,-5.837 -9.658,-7.862c-14.471,-9.769 -28.943,-7.773 -43.414,5.986c14.717,-19.537 17.568,-39.729 8.554,-60.576c-9.075,-19.061 -24.712,-28.591 -46.91,-28.591m81.77,-202.457c-36.976,-32.164 -65.796,-67.307 -86.461,-105.428c-25.263,41.159 -61.166,83.449 -107.708,126.871c40.042,33.117 76.343,75.646 108.904,127.585c26.368,-42.945 54.789,-78.951 85.265,-108.018c7.726,-7.565 15.729,-14.713 24.007,-21.443c-8.278,-6.552 -16.281,-13.074 -24.007,-19.567Z" style="fill:#df3f53;fill-rule:nonzero;"/></svg>