<?xml version="1.0" encoding="UTF-8" standalone="no"?><!DOCTYPE svg PUBLIC "-//W3C//DTD SVG 1.1//EN" "http://www.w3.org/Graphics/SVG/1.1/DTD/svg11.dtd"><svg width="100%" height="100%" viewBox="0 0 600 600" version="1.1" xmlns="http://www.w3.org/2000/svg" xmlns:xlink="http://www.w3.org/1999/xlink" xml:space="preserve" xmlns:serif="http://www.serif.com/" style="fill-rule:evenodd;clip-rule:evenodd;stroke-linecap:round;stroke-linejoin:round;"><g><path id="Layer0_0_FILL" d="M277.454,431.435c-5.757,0.639 -11.546,2.27 -17.366,4.893c-10.298,4.413 -21.779,12.504 -34.443,24.273c25.583,5.67 48.673,7.845 69.27,6.524l0,12.089c-11.449,2.686 -22.418,0.927 -32.908,-5.277c6.844,11.513 21.491,16.566 43.941,15.159c17.078,-1.024 29.007,-5.885 35.787,-14.583c-11.193,4.413 -21.971,5.82 -32.333,4.221l0,-11.417c19.731,1.207 41.19,-0.552 64.378,-5.277c-11.2,-15.343 -21.849,-24.457 -31.949,-27.343c-10.102,-2.821 -18.832,-3.556 -26.192,-2.207c-7.294,1.409 -12.283,5.407 -14.967,11.993c-5.629,-9.019 -13.368,-13.368 -23.218,-13.048m199.368,-245.037c-0.372,-0.175 -0.756,-0.367 -1.152,-0.576c-121.077,-41.515 -235.632,-41.515 -343.665,0c-0.79,0.425 -1.59,0.84 -2.399,1.247c-18.495,10.592 -31.863,25.623 -40.104,45.093l0,105.153c0.713,7.959 8.292,16.978 22.739,27.056c3.967,2.783 8.029,5.406 12.184,7.867c17.65,10.511 36.966,18.187 57.95,23.026c19.655,1.943 38.683,-1.479 57.085,-10.266c12.841,-6.137 23.235,-9.591 31.182,-10.361c18.319,-2.964 36.164,-2.964 53.535,0c9.482,1.79 17.957,5.468 25.425,11.033c13.924,9.213 34.519,13.69 61.787,13.432c23.055,-1.875 44.674,-9.87 64.857,-23.986c8.165,-5.712 16.096,-12.428 23.794,-20.148c6.516,-7.239 10.002,-13.124 10.458,-17.653l0,-114.075c-7.211,-16.168 -18.437,-28.449 -33.676,-36.842Z" style="fill:#df3f53;fill-rule:nonzero;"/><path id="Layer0_0_1_STROKES" d="M476.87,186.446c0.814,-20.574 -0.278,-39.358 -3.276,-56.355c-14.111,-80.003 -70.457,-120.382 -169.037,-121.139c-119.343,-0.923 -177.644,58.466 -174.903,178.165m-5.229,185.121c2.619,27.498 10.647,53.914 24.082,79.248c4.218,7.923 13.876,23.402 28.975,46.437c8.981,15.561 17.232,31.807 24.753,48.738c6.611,14.969 16.173,25.555 28.687,31.757c45.633,16.854 89.478,16.854 131.536,0c15.104,-6.558 26.106,-17.368 33.005,-32.428c7.633,-16.709 16.971,-33.275 28.015,-49.698c10.524,-17.602 20.438,-34.04 29.742,-49.315c14.225,-23.621 21.901,-47.575 23.026,-71.861" style="fill:none;stroke:#df3f53;stroke-width:9.59px;"/><text x="223.342px" y="308.532px" style="font-family:'ArialMT', 'Arial', sans-serif;font-size:115.131px;fill:#fff;">VR</text></g></svg>