<?xml version="1.0" encoding="UTF-8" standalone="no"?><!DOCTYPE svg PUBLIC "-//W3C//DTD SVG 1.1//EN" "http://www.w3.org/Graphics/SVG/1.1/DTD/svg11.dtd"><svg width="100%" height="100%" viewBox="0 0 600 600" version="1.1" xmlns="http://www.w3.org/2000/svg" xmlns:xlink="http://www.w3.org/1999/xlink" xml:space="preserve" xmlns:serif="http://www.serif.com/" style="fill-rule:evenodd;clip-rule:evenodd;stroke-linejoin:round;stroke-miterlimit:1.41421;"><g><path id="Layer0_0_FILL" d="M451.177,167.486c6.493,-7.33 8.063,-15.105 4.712,-23.324c-28.533,-27.068 -65.104,-50.786 -109.711,-71.152c-7.33,-2.513 -14.529,-3.351 -21.597,-2.513l-89.764,18.612c-6.492,2.566 -13.141,0.733 -19.948,-5.497l-44.057,-34.319c-10.157,-5.916 -19.607,-5.052 -28.351,2.591c-42.041,37.54 -80.026,83.691 -113.952,138.455c22.618,33.613 46.911,52.095 72.879,55.445c25.707,3.403 40.236,2.985 43.586,-1.256c55.655,-32.723 97.173,-58.403 124.555,-77.042c27.644,-18.9 44.712,-26.675 51.204,-23.324c15.811,12.984 35.864,25.418 60.157,37.303c12.722,4.241 22.172,5.785 28.35,4.634c18.116,0.314 32.095,-5.89 41.937,-18.613m-21.596,-75.392c-7.33,4.241 -9.163,10.026 -5.498,17.356c14.974,5.654 28.822,14.555 41.545,26.701c9.005,9.005 10.549,19.581 4.633,31.728c-20.89,23.455 -42.775,32.644 -65.654,27.565c-32.461,-6.492 -59.974,-20.34 -82.539,-41.544l-311.308,176.23l127.932,224.449l450.548,-255.784l0,-1.728l-127.461,-222.8l-32.198,17.827Z" style="fill:#df3f53;fill-rule:nonzero;"/><g transform="matrix(0.870512,-0.492147,0.492147,0.870512,-156.765,197.702)"><text x="297.322px" y="396.76px" style="font-family:'ArialMT', 'Arial', sans-serif;font-size:197.902px;fill:#fff;">$</text></g></g></svg>