
<svg xmlns="http://www.w3.org/2000/svg" version="1.1" xmlns:xlink="http://www.w3.org/1999/xlink" preserveAspectRatio="none" x="0px" y="0px" width="550px" height="400px" viewBox="0 0 550 400">
<defs>
<g id="Layer1_0_FILL">
<path fill="#E74939" stroke="none" d="
M 107.55 260.9
Q 100.2 253.55 89.6 253.55 78.95 253.55 71.35 260.9 64 268.25 64 278.85 64 289.45 71.35 297.1 78.95 304.4 89.6 304.4 100.2 304.4 107.55 297.1 114.85 289.45 114.85 278.85 114.85 268.25 107.55 260.9
M 393.1 203
L 393.1 181.5 140.7 181.5 140.7 203 393.1 203
M 437.7 278.85
Q 437.7 289.45 445.05 296.8 452.65 304.4 463.3 304.4 473.9 304.4 481.25 296.8 488.6 289.45 488.6 278.85 488.6 268.25 481.25 260.9 473.9 253.55 463.3 253.55 452.65 253.55 445.05 260.9 437.7 268.25 437.7 278.85
M 425.5 89.85
Q 423.55 87.65 420.6 87.65 417.3 87.65 415.15 89.85 413.25 91.75 413.25 95 413.25 97.45 414.6 99.35
L 358.3 142.3 353.4 73.8
Q 356.65 73.25 359.1 70.8 362.65 67.8 362.65 63.2 362.65 58.8 359.1 55.85 356.4 52.55 352.05 52.55 347.4 52.55 344.15 55.85 341.45 58.8 341.45 63.2 341.45 67.8 344.15 70.8 344.95 71.35 345.8 72.15
L 296.85 124.9 271.8 44.7
Q 274.55 43.85 276.45 41.7 280.25 38.45 280.25 33.25 280.25 28.35 276.45 24.85 273.15 21.3 268.55 21.3
L 268 21.3
Q 263.1 21.3 259.55 24.85 256.3 28.35 256.3 33.25 256.3 38.45 259.55 41.7 262 44.15 265 44.95
L 241.05 127.65 189.1 70.5 189.1 70.25
Q 192.65 67.25 192.65 62.65 192.65 58.3 189.1 55.3 186.4 52 182.05 52 177.45 52 174.15 55.3 171.45 58.3 171.45 62.65 171.45 67.25 174.15 70.25 177.15 72.95 181.25 73.25
L 176.05 144.75 121.4 98.55
Q 123.3 96.65 123.3 93.9 123.3 90.65 120.85 88.75 118.95 86.55 115.95 86.55 112.7 86.55 110.5 88.75 108.6 90.65 108.6 93.9 108.6 96.9 110.5 99.1 112.7 101.25 115.95 101.25 116.8 101.25 117.3 101.25
L 141 176.6 393.4 176.6 418.15 102.05
Q 419.2 102.35 420.6 102.35 423.55 102.35 425.5 100.15 427.9 98 427.9 95 427.9 91.75 425.5 89.85 Z"/>
</g>

<g id="Layer0_0_FILL">
<path fill="#E74A39" stroke="none" d="
M 381 46.5
L 381 26.15 151.6 26.15 151.6 44.55 87.25 44.55
Q 102.3 125.35 172.9 162.65 193.4 212.55 236.05 229.25 246.35 240.6 250.55 256.95 257.35 283.55 251.3 311.45 248.6 324 237.2 328.25 209.4 333.1 175.3 367.1
L 175.3 378.55 357.65 378.55 357.65 363.9
Q 327.45 336.85 292.7 327.15 281.7 324.5 279.85 310.05 276.35 282.6 281.5 256.4 285.25 240.9 297.3 228.35 343.35 205.55 361.65 163.55 437.65 114.05 444.75 46.5
L 381 46.5
M 367 145.9
Q 378.8 99.65 380.65 58.1
L 427.9 58.1
Q 416.3 111.05 367 145.9
M 105.5 56.35
L 153.4 56.35
Q 155.2 97.9 167.15 144.2 117.25 109.3 105.5 56.35 Z"/>
</g>
</defs>

<g transform="matrix( 1, 0, 0, 1, 0,0) ">
<use xlink:href="#Layer1_0_FILL"/>
</g>

<g transform="matrix( 5.4396514892578125, 0, 0, 5.4396514892578125, -114.25,149.55) ">
<clipPath id="Mask_Mask_1">
<rect x="42.1" y="-2" width="59.8" height="50.15" fill="#FFFFFF" stroke="none"/>
</clipPath>

<text clip-path="url(#Mask_Mask_1)" writing-mode="lr"><tspan x="44.15" y="36.65" baseline-shift="0%" font-family="Roboto Black" font-size="35" fill="#E74939" xml:space="preserve">VIP</tspan></text>
</g>

<g transform="matrix( 1, 0, 0, 1, 0,0) ">
<use xlink:href="#Layer0_0_FILL"/>
</g>
</svg>
