
<svg xmlns="http://www.w3.org/2000/svg" version="1.1" xmlns:xlink="http://www.w3.org/1999/xlink" preserveAspectRatio="none" x="0px" y="0px" width="550px" height="400px" viewBox="0 0 550 400">
<defs>
<image id="Mapa_de_bits_4" x="0" y="0" width="68" height="60" xlink:href="./imágenes/Mapa_de_bits_4.png"/>

<g id="Layer2_0_FILL">
<path fill="#E74C3C" stroke="none" d="
M 201.95 252.7
Q 192.05 220.9 166.75 225.75 141.3 230.35 141.05 258.4 141.9 291.65 170.35 315.65 196.9 342.85 199 372.1 202.8 342.85 223.85 322 253.35 296.5 260.7 268.3 264.7 233.3 235.65 227 207.85 222.55 201.95 252.7
M 198.8 142.95
Q 198.15 158.75 192.05 174.35 185.95 187.4 153.1 189.3
L 153.1 193.95 247 193.95 247 190.15
Q 216.5 189.5 210.6 169.9 205.1 156.25 204.25 142.55 215.2 169.3 232.9 168.85 254.8 166.95 261.75 145.5 264.9 125.9 246.6 111.35 212.9 85.05 201.3 55.75 188.7 83.75 161.1 107.15 129.7 132 149.3 158.35 175.4 182.75 198.8 142.95
M 354.65 228.05
Q 336.55 227.85 327.5 241.1 314.85 259.65 331.7 278.2 315.7 263 299.7 282.6 289.35 295.25 293.15 315.25 299.25 336.75 318 340.1 346.45 344.95 348.1 315.25 350.65 332.3 346 343.9 341.4 355.5 313.35 362.45
L 313.35 368.55 393.85 368.55 393.85 362
Q 370.85 360.55 364.35 351.5 352.55 331.45 356.1 315.05 360.75 341.15 384.75 340.3 393.2 339.7 399.1 335.9 408.55 329.55 412.15 315.05 416.55 291.85 404.35 279 401.6 276.3 399.1 274.6 387.3 266.4 375.5 277.95 387.5 261.55 380.15 244.05 372.75 228.05 354.65 228.05
M 399.1 114.75
Q 368.95 87.75 352.1 55.75 331.5 90.3 293.55 126.75 326.2 154.55 352.75 198.15 374.25 162.1 399.1 137.7 405.4 131.35 412.15 125.7 405.4 120.2 399.1 114.75 Z"/>
</g>

<g id="Layer0_0_FILL">
<path fill="#E74C3C" stroke="none" d="
M 394.6 131.95
Q 400.8 124.95 397.6 117.1 370.35 91.25 327.75 71.8 320.75 69.4 314 70.2
L 256.85 82.05
Q 250.65 84.5 244.15 78.55
L 216.1 56.7
Q 206.4 51.05 198.05 58.35 157.9 94.2 125.5 146.5 147.1 178.6 171.9 181.8 196.45 185.05 199.65 181 252.8 149.75 278.95 131.95 305.35 113.9 311.55 117.1 326.65 129.5 349.85 140.85 362 144.9 367.9 143.8 385.2 144.1 394.6 131.95
M 380.85 83.95
Q 373.85 88 377.35 95 391.65 100.4 403.8 112 412.4 120.6 406.75 132.2 386.8 154.6 364.95 149.75 333.95 143.55 312.4 123.3
L 114.2 235.5 195.65 378.4 482.5 215.55 482.5 214.45 401.35 72.6 380.85 83.95 Z"/>
</g>
</defs>

<g transform="matrix( 1, 0, 0, 1, 0,0) ">
<use xlink:href="#Layer2_0_FILL"/>
</g>

<g transform="matrix( 1, 0, 0, 1, 220,172) ">
<use xlink:href="#Mapa_de_bits_4"/>
</g>

<g transform="matrix( 1, 0, 0, 1, 0,0) ">
<use xlink:href="#Layer0_0_FILL"/>
</g>

<g transform="matrix( 1.1425323486328125, -0.64593505859375, 0.64593505859375, 1.1425323486328125, 180.25,192.05) ">
<clipPath id="Mask_Mask_1">
<rect x="42.9" y="-2" width="58.2" height="130.6" fill="#FFFFFF" stroke="none"/>
</clipPath>

<text clip-path="url(#Mask_Mask_1)" writing-mode="lr"><tspan x="45" y="100.6" baseline-shift="0%" font-family="Roboto Regular" font-size="96" fill="#FFFFFF" xml:space="preserve">$</tspan></text>
</g>
</svg>
