<?xml version="1.0" encoding="UTF-8" standalone="no"?><!DOCTYPE svg PUBLIC "-//W3C//DTD SVG 1.1//EN" "http://www.w3.org/Graphics/SVG/1.1/DTD/svg11.dtd"><svg width="100%" height="100%" viewBox="0 0 600 600" version="1.1" xmlns="http://www.w3.org/2000/svg" xmlns:xlink="http://www.w3.org/1999/xlink" xml:space="preserve" xmlns:serif="http://www.serif.com/" style="fill-rule:evenodd;clip-rule:evenodd;stroke-linecap:round;stroke-linejoin:round;stroke-miterlimit:1.5;"><g id="Logo"><g id="Logo1" serif:id="Logo"><circle id="Logo2" serif:id="Logo" cx="293.03" cy="291.377" r="274.029" style="fill:#fff;stroke:#df3f53;stroke-width:5.45px;"/><path d="M362.022,26.175c-45.242,-11.769 -92.742,-11.769 -137.984,0l17.718,72.136c-34.18,9.078 -65.338,27.066 -90.289,52.129l-53.613,-51.412c-32.813,33.295 -56.563,74.432 -68.991,119.497l71.33,20.723c-9.229,34.14 -9.229,70.118 0,104.258l-71.33,20.724c12.428,45.065 36.178,86.201 68.991,119.497l53.613,-51.413c24.951,25.063 56.109,43.052 90.289,52.129l-17.718,72.136c45.242,11.769 92.742,11.769 137.984,0l-17.718,-72.136c34.18,-9.077 65.338,-27.066 90.289,-52.129l53.613,51.413c32.813,-33.296 56.563,-74.432 68.991,-119.497l-71.33,-20.724c9.229,-34.14 9.229,-70.118 0,-104.258l71.33,-20.723c-12.428,-45.065 -36.178,-86.202 -68.991,-119.497l-53.613,51.412c-24.951,-25.063 -56.109,-43.051 -90.289,-52.129l17.718,-72.136Zm-68.992,71.411c106.956,0 193.791,86.835 193.791,193.791c0,106.956 -86.835,193.791 -193.791,193.791c-106.956,0 -193.791,-86.835 -193.791,-193.791c0,-106.956 86.835,-193.791 193.791,-193.791Z" style="fill:#df3f53;"/><circle cx="292.651" cy="291.377" r="157.487" style="fill:#df3f53;"/><circle cx="292.651" cy="291.377" r="157.487" style="fill:#df3f53;"/><g id="Corona"><path d="M293.49,173.721l-0.367,30.293l-0.161,87.595l61.096,0l15.103,-89.239l-25.318,39.378l-7.849,-52.402l-18.409,46.284l-24.095,-61.909Z" style="fill:#fff;"/><path d="M293.49,172.883l-0.468,118.726l-57.541,0l-17.663,-89.239l26.227,39.907l6.94,-53.769l18.409,46.284l24.096,-61.909Z" style="fill:#fff;"/><circle cx="293.49" cy="172.883" r="6.161" style="fill:#fff;"/><circle cx="335.538" cy="188.09" r="4.477" style="fill:#fff;"/><circle cx="251.177" cy="188.09" r="4.477" style="fill:#fff;"/><ellipse cx="217.818" cy="201.729" rx="3.537" ry="3.716" style="fill:#fff;"/><ellipse cx="369.161" cy="201.729" rx="3.537" ry="3.716" style="fill:#fff;"/><rect x="234.114" y="300.308" width="119.526" height="8.843" style="fill:#fff;"/></g></g><text x="217.86px" y="402.706px" style="font-family:'Roboto-Black', 'Roboto';font-weight:900;font-size:111.627px;fill:#fff;">CN</text></g></svg>