<?xml version="1.0" encoding="UTF-8" standalone="no"?><!DOCTYPE svg PUBLIC "-//W3C//DTD SVG 1.1//EN" "http://www.w3.org/Graphics/SVG/1.1/DTD/svg11.dtd"><svg width="100%" height="100%" viewBox="0 0 600 600" version="1.1" xmlns="http://www.w3.org/2000/svg" xmlns:xlink="http://www.w3.org/1999/xlink" xml:space="preserve" xmlns:serif="http://www.serif.com/" style="fill-rule:evenodd;clip-rule:evenodd;stroke-linejoin:round;stroke-miterlimit:1.41421;"><path id="Layer0_0_FILL" d="M480.306,55.646l0,-31.907l-359.672,0l0,28.849l-100.893,0c15.731,84.457 60.494,146.179 134.289,185.167c21.428,52.158 54.432,86.965 99.012,104.421c10.766,11.864 18.344,26.34 22.734,43.43c7.108,27.804 7.5,56.287 1.176,85.45c-2.822,13.118 -10.191,21.898 -22.107,26.34c-29.058,5.07 -61.409,25.374 -97.052,60.913l0,17.952l285.903,0l0,-22.97c-31.566,-28.274 -65.511,-47.48 -101.834,-57.619c-11.497,-2.77 -18.213,-11.707 -20.147,-26.811c-3.658,-28.692 -2.796,-56.731 2.587,-84.117c3.92,-16.201 12.177,-30.861 24.773,-43.979c48.134,-23.832 81.765,-57.698 100.893,-101.599c79.439,-51.74 122.87,-112.913 130.291,-183.52l-99.953,0m-21.95,155.847c12.334,-48.343 19.468,-94.23 21.402,-137.66l74.082,0c-12.125,55.346 -43.953,101.233 -95.484,137.66m-410.001,-140.404l75.101,0c1.882,43.431 9.068,89.343 21.559,137.739c-52.158,-36.48 -84.378,-82.393 -96.66,-137.739Z" style="fill:#df3f53;fill-rule:nonzero;"/></svg>