<?xml version="1.0" encoding="UTF-8" standalone="no"?><!DOCTYPE svg PUBLIC "-//W3C//DTD SVG 1.1//EN" "http://www.w3.org/Graphics/SVG/1.1/DTD/svg11.dtd"><svg width="100%" height="100%" viewBox="0 0 600 600" version="1.1" xmlns="http://www.w3.org/2000/svg" xmlns:xlink="http://www.w3.org/1999/xlink" xml:space="preserve" xmlns:serif="http://www.serif.com/" style="fill-rule:evenodd;clip-rule:evenodd;stroke-linejoin:round;stroke-miterlimit:1.41421;"><g><path id="Layer0_0_FILL" d="M66.202,405.009c-6.789,-6.788 -15.078,-10.183 -24.869,-10.183c-9.837,0 -18.265,3.395 -25.285,10.183c-6.789,6.789 -10.183,15.079 -10.183,24.87c0,9.79 3.394,18.218 10.183,25.284c7.02,6.743 15.448,10.114 25.285,10.114c9.791,0 18.08,-3.371 24.869,-10.114c6.743,-7.066 10.114,-15.494 10.114,-25.284c0,-9.791 -3.371,-18.081 -10.114,-24.87m395.621,-80.218l0,-29.788l-349.693,0l0,29.788l349.693,0m61.792,105.088c0,9.79 3.394,18.08 10.183,24.869c7.02,7.019 15.448,10.529 25.285,10.529c9.79,0 18.08,-3.51 24.869,-10.529c6.789,-6.789 10.183,-15.079 10.183,-24.869c0,-9.791 -3.394,-18.081 -10.183,-24.87c-6.789,-6.788 -15.079,-10.183 -24.869,-10.183c-9.837,0 -18.265,3.395 -25.285,10.183c-6.789,6.789 -10.183,15.079 -10.183,24.87m-16.903,-261.854c-1.801,-2.032 -4.064,-3.048 -6.789,-3.048c-3.048,0 -5.565,1.016 -7.551,3.048c-1.755,1.755 -2.632,4.133 -2.632,7.135c0,2.263 0.623,4.272 1.87,6.027l-78.002,59.506l-6.788,-94.905c3.001,-0.508 5.634,-1.893 7.897,-4.156c3.279,-2.771 4.918,-6.281 4.918,-10.53c0,-4.064 -1.639,-7.458 -4.918,-10.183c-2.494,-3.048 -5.75,-4.572 -9.768,-4.572c-4.295,0 -7.943,1.524 -10.945,4.572c-2.494,2.725 -3.741,6.119 -3.741,10.183c0,4.249 1.247,7.759 3.741,10.53c0.739,0.508 1.501,1.131 2.286,1.87l-67.819,73.084l-34.706,-111.115c2.54,-0.785 4.688,-2.171 6.443,-4.156c3.51,-3.002 5.265,-6.905 5.265,-11.708c0,-4.525 -1.755,-8.405 -5.265,-11.638c-3.048,-3.278 -6.697,-4.918 -10.945,-4.918l-0.762,0c-4.526,0 -8.429,1.64 -11.708,4.918c-3.001,3.233 -4.502,7.113 -4.502,11.638c0,4.803 1.501,8.706 4.502,11.708c2.263,2.263 4.78,3.763 7.551,4.502l-33.182,114.579l-71.975,-79.18l0,-0.346c3.279,-2.771 4.919,-6.281 4.919,-10.53c0,-4.018 -1.64,-7.412 -4.919,-10.183c-2.494,-3.048 -5.75,-4.572 -9.767,-4.572c-4.249,0 -7.898,1.524 -10.946,4.572c-2.493,2.771 -3.74,6.165 -3.74,10.183c0,4.249 1.247,7.759 3.74,10.53c2.771,2.494 6.05,3.879 9.837,4.156l-7.204,99.061l-75.716,-64.008c1.755,-1.755 2.632,-3.903 2.632,-6.443c0,-3.002 -1.131,-5.38 -3.394,-7.135c-1.755,-2.032 -4.018,-3.048 -6.789,-3.048c-3.002,0 -5.519,1.016 -7.551,3.048c-1.755,1.755 -2.632,4.133 -2.632,7.135c0,2.771 0.877,5.173 2.632,7.205c2.032,1.985 4.549,2.978 7.551,2.978c0.785,0 1.409,0 1.87,0l32.836,104.395l349.692,0l34.291,-103.286c0.97,0.277 2.101,0.415 3.394,0.415c2.725,0 4.988,-1.016 6.789,-3.048c2.217,-1.986 3.325,-4.364 3.325,-7.135c0,-3.002 -1.108,-5.38 -3.325,-7.135Z" style="fill:#df3f53;fill-rule:nonzero;"/><text x="91.64px" y="526.949px" style="font-family:'ArialMT', 'Arial', sans-serif;font-size:263.776px;fill:#df3f53;">VIP</text></g></svg>