
<svg xmlns="http://www.w3.org/2000/svg" version="1.1" xmlns:xlink="http://www.w3.org/1999/xlink" preserveAspectRatio="none" x="0px" y="0px" width="550px" height="400px" viewBox="0 0 550 400">
<defs>
<g id="Layer2_0_FILL">
<path fill="#E74C3C" stroke="none" d="
M 393.25 317.2
Q 441.95 268.5 441.95 199.6 441.95 130.7 393.25 82 344.55 33.3 275.65 33.3 206.75 33.3 158.05 82 109.35 130.7 109.35 199.6 109.35 268.5 158.05 317.2 206.75 365.9 275.65 365.9 344.55 365.9 393.25 317.2
M 390.05 199.6
Q 390.05 247 356.55 280.5 323.05 313.95 275.7 313.95 228.3 313.95 194.85 280.5 161.35 247 161.35 199.6 161.35 152.25 194.85 118.75 228.3 85.25 275.7 85.25 323.05 85.25 356.55 118.75 390.05 152.25 390.05 199.6
M 347.3 271.2
Q 376.95 241.55 376.95 199.6 376.95 157.65 347.3 128 317.65 98.35 275.7 98.35 233.75 98.35 204.1 128 174.45 157.65 174.45 199.6 174.45 241.55 204.1 271.2 233.75 300.85 275.7 300.85 317.65 300.85 347.3 271.2 Z"/>

<path fill="#FFFFFF" stroke="none" d="
M 356.55 280.5
Q 390.05 247 390.05 199.6 390.05 152.25 356.55 118.75 323.05 85.25 275.7 85.25 228.3 85.25 194.85 118.75 161.35 152.25 161.35 199.6 161.35 247 194.85 280.5 228.3 313.95 275.7 313.95 323.05 313.95 356.55 280.5
M 376.95 199.6
Q 376.95 241.55 347.3 271.2 317.65 300.85 275.7 300.85 233.75 300.85 204.1 271.2 174.45 241.55 174.45 199.6 174.45 157.65 204.1 128 233.75 98.35 275.7 98.35 317.65 98.35 347.3 128 376.95 157.65 376.95 199.6 Z"/>
</g>

<g id="Layer1_0_FILL">
<path fill="#FFFFFF" stroke="none" d="
M 216 350.3
L 230.35 308.8
Q 207.5 299.15 190.25 281.85
L 157.2 310.9
Q 183.45 337.3 216 350.3
M 159.7 173.7
L 117.2 161.95
Q 109.65 198.4 116.75 232.85
L 159.4 221.95
Q 154.75 197.45 159.7 173.7
M 230.6 88.95
L 215.45 47.55
Q 181.45 62.65 157.55 88.4
L 191.2 116.75
Q 208.4 98.75 230.6 88.95
M 333.7 351.6
Q 367.9 337 392.1 311.55
L 358.9 282.85
Q 341.45 300.55 319.05 310.1
L 333.7 351.6
M 432.95 161.15
L 390.8 173.45
Q 396.15 197.8 392.05 221.65
L 435 231.95
Q 441.25 195.3 432.95 161.15
M 392.25 86.3
Q 365.75 60.25 333 47.6
L 319.05 89.2
Q 342.05 98.6 359.45 115.65
L 392.25 86.3 Z"/>
</g>

<g id="Layer0_0_FILL">
<path fill="#FFFFFF" stroke="none" d="
M 315.55 193.4
L 233.85 193.4 233.85 198.8 315.55 198.8 315.55 193.4
M 327.5 148.2
Q 328.1 147.65 328.1 146.85 328.1 146.05 327.5 145.45 326.95 144.9 326.15 144.9 325.35 144.9 324.75 145.45 324.2 146.05 324.2 146.85 324.2 147.65 324.75 148.2 324.85 148.3 325 148.4
L 305.1 171.4 298.55 139.75
Q 299.1 139.6 299.55 139.15 300.15 138.6 300.15 137.8 300.15 137 299.55 136.4 299 135.85 298.2 135.85 297.4 135.85 296.8 136.4 296.25 137 296.25 137.8 296.25 138.6 296.8 139.15 297.1 139.45 297.5 139.65
L 284 167.9 272.2 129.85
Q 273 129.55 273.65 128.85 274.75 127.85 274.75 126.35 274.75 124.85 273.65 123.7 272.6 122.7 271.1 122.7 269.6 122.7 268.5 123.7 267.45 124.85 267.45 126.35 267.45 127.85 268.5 128.85 269.25 129.65 270.2 129.9
L 259.7 168.45 244.25 140.8
Q 244.45 140.65 244.65 140.45 245.25 139.9 245.25 139.1 245.25 138.3 244.65 137.7 244.1 137.15 243.3 137.15 242.5 137.15 241.9 137.7 241.35 138.3 241.35 139.1 241.35 139.9 241.9 140.45 242.5 141.05 243.3 141.05
L 243.3 174.7 222.9 148.75
Q 222.95 148.7 223.05 148.6 223.65 148.05 223.65 147.25 223.65 146.45 223.05 145.85 222.5 145.3 221.7 145.3 220.9 145.3 220.3 145.85 219.75 146.45 219.75 147.25 219.75 148.05 220.3 148.6 220.9 149.2 221.7 149.2 221.95 149.2 222.25 149.15
L 234.05 191.95 315.65 191.95 325.7 148.75
Q 325.9 148.8 326.15 148.8 326.95 148.8 327.5 148.2 Z"/>
</g>
</defs>

<g transform="matrix( 1, 0, 0, 1, 0,0) ">
<use xlink:href="#Layer2_0_FILL"/>
</g>

<g transform="matrix( 1, 0, 0, 1, 0,0) ">
<use xlink:href="#Layer1_0_FILL"/>
</g>

<g transform="matrix( 0.85296630859375, 0, 0, 0.85296630859375, 273.3,181.6) ">
<clipPath id="Mask_Mask_1">
<rect x="-60.65" y="-2" width="127.5" height="130.6" fill="#FFFFFF" stroke="none"/>
</clipPath>

<text clip-path="url(#Mask_Mask_1)" writing-mode="lr"><tspan x="-58.55" y="100.6" baseline-shift="0%" font-family="Roboto Black" font-size="96" fill="#FFFFFF" xml:space="preserve">CC</tspan></text>
</g>

<g transform="matrix( 1, 0, 0, 1, 0,0) ">
<use xlink:href="#Layer0_0_FILL"/>
</g>
</svg>
